<?xml version="1.0" encoding="utf-8"?>
<!-- Generator: Adobe Illustrator 24.0.0, SVG Export Plug-In . SVG Version: 6.00 Build 0)  -->
<svg version="1.1" id="Layer_1" xmlns="http://www.w3.org/2000/svg" xmlns:xlink="http://www.w3.org/1999/xlink" x="0px" y="0px"
	 viewBox="0 0 180.9 25" style="enable-background:new 0 0 180.9 25;" xml:space="preserve">
<style type="text/css">
	.st0{fill:#FFFFFF;}
</style>
<title>资源 8</title>
<g>
	<path class="st0" d="M3.6,17.6l2.9-1.8c0.7,2.7,2.1,3.9,3.9,3.9c1.7,0,2.5-0.8,2.5-2.5c0-1-1-2-2.9-2.8c-0.4-0.1-0.7-0.3-1-0.4
		c-0.3-0.1-0.7-0.3-1.1-0.6c-0.3-0.1-0.7-0.4-1-0.6c-0.3-0.3-0.6-0.6-0.8-0.8c-0.3-0.3-0.6-0.7-0.7-1C5.1,10.6,5,10.2,5,9.8
		C4.8,9.3,4.7,8.9,4.7,8.5V8.4c0-1.5,0.6-2.8,1.5-3.8S8.5,3,10,3c2.7,0,4.5,1.1,5.6,3.5l-2.8,2c-0.7-1.4-1.5-2.1-2.7-2.1
		c-0.6,0-1,0.1-1.4,0.6C8.3,7.2,8.2,7.7,8.2,8.2c0,1,1,2,2.9,2.9c0.4,0.1,0.8,0.3,1.1,0.4s0.6,0.3,1,0.6c0.4,0.3,0.8,0.4,1,0.7
		c0.3,0.1,0.6,0.4,0.8,0.8c0.3,0.3,0.6,0.7,0.7,1c0.1,0.3,0.3,0.7,0.4,1.1s0.1,0.8,0.1,1.4c0,2-0.6,3.4-1.7,4.5
		c-1.1,1.1-2.7,1.7-4.6,1.7c-1.7,0-3.2-0.6-4.3-1.5C4.7,20.4,3.9,19.1,3.6,17.6z"/>
	<path class="st0" d="M19.4,15.4v-12h3.8v12.2c0,2.8,1.3,4.2,3.6,4.2s3.6-1.4,3.6-4.2V3.3h3.6v12.2c0,2.5-0.7,4.3-2,5.7
		c-1.3,1.3-3.1,2-5.3,2s-4.1-0.7-5.3-2C20.1,19.8,19.4,17.9,19.4,15.4z"/>
	<path class="st0" d="M38.5,22.9V3.3h3.6v7.3l6.7-7.3h4.5l-8,8.7l8.5,10.8h-4.6l-7.1-9.4v9.4h-3.6C38.5,22.8,38.5,22.9,38.5,22.9z"
		/>
	<path class="st0" d="M54,22.9l6.6-19.6h3.6l6.6,19.6h-3.9l-1.4-4.6h-6.2l-1.4,4.6H54z M60.5,14.9h4.2l-2.1-6.9L60.5,14.9z"/>
	<path class="st0" d="M73.6,22.9V3.3h3.8l7.1,12.9V3.3h3.6v19.6h-3.8L77.3,10v12.9H73.6z"/>
	<path class="st0" d="M91,6.7V3.3h14.4v3.4H100v16.3h-3.6V6.7H91z"/>
	<path class="st0" d="M105.8,22.9l6.6-19.6h3.6l6.6,19.6h-3.9l-1.4-4.6h-6.2l-1.4,4.6H105.8z M112.3,14.9h4.2l-2.2-6.9L112.3,14.9z"
		/>
	<path class="st0" d="M132.3,22.9V3.3h7.4c2,0,3.5,0.6,4.5,1.7s1.5,2.5,1.5,4.3s-0.6,3.2-1.5,4.3c-1.1,1.1-2.5,1.5-4.5,1.5H136v7.7
		H132.3z M136,11.9h3.6c1.7,0,2.5-0.8,2.5-2.7c0-1.7-0.8-2.7-2.5-2.7H136V11.9z"/>
	<path class="st0" d="M146.5,22.9l6.6-19.6h3.6l6.6,19.6h-3.9l-1.4-4.6h-6.2l-1.4,4.6H146.5z M152.9,14.9h4.2L155,8.1L152.9,14.9z"
		/>
	<path class="st0" d="M166.1,22.9V3.3h3.6v16.3h8.3v3.4H166.1z"/>
</g>
</svg>
