<?xml version="1.0" encoding="utf-8"?>
<!-- Generator: Adobe Illustrator 24.0.0, SVG Export Plug-In . SVG Version: 6.00 Build 0)  -->
<svg version="1.1" id="Layer_1" xmlns="http://www.w3.org/2000/svg" xmlns:xlink="http://www.w3.org/1999/xlink" x="0px" y="0px"
	 viewBox="0 0 180.9 25" style="enable-background:new 0 0 180.9 25;" xml:space="preserve">
<title>资源 7</title>
<g>
	<path d="M1.6,17.1l3-1.8c0.7,2.7,2.1,4.1,4,4.1c1.7,0,2.5-0.8,2.5-2.5c0-1-1-2-3-2.8c-0.3-0.3-0.7-0.4-1-0.6
		c-0.3-0.1-0.6-0.3-1-0.6c-0.4-0.1-0.8-0.4-1.1-0.7c-0.3-0.1-0.6-0.4-0.8-0.8c-0.3-0.3-0.6-0.6-0.7-1C3.3,10,3,9.6,3,9.2
		C2.9,8.7,2.7,8.3,2.7,7.8V7.6c0-1.6,0.6-2.8,1.6-3.8s2.4-1.6,4-1.6c2.7,0,4.7,1.3,5.8,3.7l-3,1.8c-0.7-1.4-1.7-2.1-2.8-2.1
		c-0.6,0-1,0.3-1.4,0.6C6.4,6.5,6.4,7.1,6.4,7.5c0,1,1,2,3,3c0.4,0.3,0.7,0.4,1,0.6s0.7,0.3,1.1,0.6c0.4,0.3,0.8,0.4,1.1,0.7
		c0.3,0.3,0.6,0.4,0.8,0.8c0.3,0.4,0.6,0.7,0.7,1s0.3,0.7,0.4,1.1c0.1,0.4,0.1,0.8,0.1,1.4c0,2-0.6,3.4-1.7,4.5s-2.7,1.7-4.7,1.7
		c-1.7,0-3.2-0.6-4.5-1.6C2.7,20.1,1.9,18.6,1.6,17.1z"/>
	<path d="M17.8,14.8V2.5h3.7V15c0,3,1.3,4.4,3.7,4.4c2.5,0,3.7-1.4,3.7-4.4V2.5h3.8V15c0,2.5-0.7,4.5-2,5.8c-1.3,1.3-3.1,2-5.5,2
		c-2.3,0-4.1-0.7-5.5-2C18.4,19.3,17.8,17.4,17.8,14.8z"/>
	<path d="M37.2,22.5V2.5h3.7V10l6.8-7.5h4.5l-8.1,8.9l8.6,11h-4.7L40.9,13v9.5H37.2z"/>
	<path d="M53,22.5l6.8-19.9h3.7l6.8,19.9h-4l-1.4-4.7h-6.4l-1.4,4.7H53z M59.5,14.4h4.2l-2.1-6.9L59.5,14.4z"/>
	<path d="M72.9,22.5V2.5h4l7.3,13.1V2.5h3.7v19.9h-4L76.6,9.3v13.1H72.9z"/>
	<path d="M90.7,5.9V2.5h14.8v3.4h-5.5v16.5h-3.8V5.9H90.7z"/>
	<path d="M105.9,22.5l6.8-19.9h3.7l6.8,19.9h-4l-1.4-4.7h-6.4l-1.4,4.7H105.9z M112.4,14.4h4.2l-2.1-6.9L112.4,14.4z"/>
	<path d="M132.8,22.5V2.5h7.5c2,0,3.5,0.6,4.7,1.7s1.6,2.5,1.6,4.4S146,12,145,13c-1.1,1.1-2.7,1.7-4.7,1.7h-3.8v7.8
		C136.5,22.5,132.8,22.5,132.8,22.5z M136.5,11.3h3.7c1.7,0,2.7-0.8,2.7-2.7s-0.8-2.7-2.7-2.7h-3.7V11.3z"/>
	<path d="M147.3,22.5L154,2.5h3.7l6.8,19.9h-4l-1.4-4.7h-6.4l-1.4,4.7H147.3z M153.9,14.4h4.2L156,7.5L153.9,14.4z"/>
	<path d="M167.3,22.5V2.5h3.7v16.5h8.5v3.4H167.3z"/>
</g>
</svg>
